<svg id="visual" viewBox="0 0 900 50" width="900" height="50" xmlns="http://www.w3.org/2000/svg" xmlns:xlink="http://www.w3.org/1999/xlink" version="1.1"><path d="M0 13L10.7 14C21.3 15 42.7 17 64.2 16.8C85.7 16.7 107.3 14.3 128.8 15.3C150.3 16.3 171.7 20.7 193 21.7C214.3 22.7 235.7 20.3 257 21.2C278.3 22 299.7 26 321.2 28.7C342.7 31.3 364.3 32.7 385.8 33.7C407.3 34.7 428.7 35.3 450 34C471.3 32.7 492.7 29.3 514.2 26.7C535.7 24 557.3 22 578.8 23.2C600.3 24.3 621.7 28.7 643 29.2C664.3 29.7 685.7 26.3 707 25.8C728.3 25.3 749.7 27.7 771.2 27.7C792.7 27.7 814.3 25.3 835.8 24.8C857.3 24.3 878.7 25.7 889.3 26.3L900 27L900 51L889.3 51C878.7 51 857.3 51 835.8 51C814.3 51 792.7 51 771.2 51C749.7 51 728.3 51 707 51C685.7 51 664.3 51 643 51C621.7 51 600.3 51 578.8 51C557.3 51 535.7 51 514.2 51C492.7 51 471.3 51 450 51C428.7 51 407.3 51 385.8 51C364.3 51 342.7 51 321.2 51C299.7 51 278.3 51 257 51C235.7 51 214.3 51 193 51C171.7 51 150.3 51 128.8 51C107.3 51 85.7 51 64.2 51C42.7 51 21.3 51 10.7 51L0 51Z" fill="#80d7ff"></path><path d="M0 37L10.7 34.2C21.3 31.3 42.7 25.7 64.2 23C85.7 20.3 107.3 20.7 128.8 21C150.3 21.3 171.7 21.7 193 24.7C214.3 27.7 235.7 33.3 257 33.7C278.3 34 299.7 29 321.2 26.5C342.7 24 364.3 24 385.8 22.8C407.3 21.7 428.7 19.3 450 17.7C471.3 16 492.7 15 514.2 16.7C535.7 18.3 557.3 22.7 578.8 24.2C600.3 25.7 621.7 24.3 643 22.7C664.3 21 685.7 19 707 21.5C728.3 24 749.7 31 771.2 33C792.7 35 814.3 32 835.8 29.7C857.3 27.3 878.7 25.7 889.3 24.8L900 24L900 51L889.3 51C878.7 51 857.3 51 835.8 51C814.3 51 792.7 51 771.2 51C749.7 51 728.3 51 707 51C685.7 51 664.3 51 643 51C621.7 51 600.3 51 578.8 51C557.3 51 535.7 51 514.2 51C492.7 51 471.3 51 450 51C428.7 51 407.3 51 385.8 51C364.3 51 342.7 51 321.2 51C299.7 51 278.3 51 257 51C235.7 51 214.3 51 193 51C171.7 51 150.3 51 128.8 51C107.3 51 85.7 51 64.2 51C42.7 51 21.3 51 10.7 51L0 51Z" fill="#1dabff"></path><path d="M0 31L10.7 31C21.3 31 42.7 31 64.2 29.7C85.7 28.3 107.3 25.7 128.8 24.8C150.3 24 171.7 25 193 26.5C214.3 28 235.7 30 257 32.3C278.3 34.7 299.7 37.3 321.2 38.2C342.7 39 364.3 38 385.8 35.3C407.3 32.7 428.7 28.3 450 27.3C471.3 26.3 492.7 28.7 514.2 30.7C535.7 32.7 557.3 34.3 578.8 33C600.3 31.7 621.7 27.3 643 26.8C664.3 26.3 685.7 29.7 707 29.7C728.3 29.7 749.7 26.3 771.2 26.8C792.7 27.3 814.3 31.7 835.8 32.5C857.3 33.3 878.7 30.7 889.3 29.3L900 28L900 51L889.3 51C878.7 51 857.3 51 835.8 51C814.3 51 792.7 51 771.2 51C749.7 51 728.3 51 707 51C685.7 51 664.3 51 643 51C621.7 51 600.3 51 578.8 51C557.3 51 535.7 51 514.2 51C492.7 51 471.3 51 450 51C428.7 51 407.3 51 385.8 51C364.3 51 342.7 51 321.2 51C299.7 51 278.3 51 257 51C235.7 51 214.3 51 193 51C171.7 51 150.3 51 128.8 51C107.3 51 85.7 51 64.2 51C42.7 51 21.3 51 10.7 51L0 51Z" fill="#0077f9"></path><path d="M0 35L10.7 36.8C21.3 38.7 42.7 42.3 64.2 43C85.7 43.7 107.3 41.3 128.8 39C150.3 36.7 171.7 34.3 193 35.5C214.3 36.7 235.7 41.3 257 43.7C278.3 46 299.7 46 321.2 44.7C342.7 43.3 364.3 40.7 385.8 39.5C407.3 38.3 428.7 38.7 450 38.8C471.3 39 492.7 39 514.2 39.3C535.7 39.7 557.3 40.3 578.8 39.2C600.3 38 621.7 35 643 34.7C664.3 34.3 685.7 36.7 707 37.5C728.3 38.3 749.7 37.7 771.2 36.5C792.7 35.3 814.3 33.7 835.8 32.8C857.3 32 878.7 32 889.3 32L900 32L900 51L889.3 51C878.7 51 857.3 51 835.8 51C814.3 51 792.7 51 771.2 51C749.7 51 728.3 51 707 51C685.7 51 664.3 51 643 51C621.7 51 600.3 51 578.8 51C557.3 51 535.7 51 514.2 51C492.7 51 471.3 51 450 51C428.7 51 407.3 51 385.8 51C364.3 51 342.7 51 321.2 51C299.7 51 278.3 51 257 51C235.7 51 214.3 51 193 51C171.7 51 150.3 51 128.8 51C107.3 51 85.7 51 64.2 51C42.7 51 21.3 51 10.7 51L0 51Z" fill="#0036de"></path></svg>